<mxfile host="app.diagrams.net" modified="2023-12-06T14:59:33.903Z" agent="Mozilla/5.0 (Windows NT 10.0; Win64; x64) AppleWebKit/537.36 (KHTML, like Gecko) Chrome/119.0.0.0 Safari/537.36" version="22.1.5" etag="0dkp-n8bxqg0fBR14ENE" type="device">
  <diagram id="eFWtBpRJ9CoNT8bUsYGa" name="Page-1">
    <mxGraphModel dx="882" dy="578" grid="1" gridSize="10" guides="1" tooltips="1" connect="1" arrows="1" fold="1" page="1" pageScale="1" pageWidth="850" pageHeight="1100" math="0" shadow="0">
      <root>
        <mxCell id="0" />
        <mxCell id="1" parent="0" />
        <mxCell id="u5ZnRDsaEpB6E1fvOYV4-6" style="edgeStyle=orthogonalEdgeStyle;rounded=0;orthogonalLoop=1;jettySize=auto;html=1;exitX=1;exitY=0.5;exitDx=0;exitDy=0;entryX=0;entryY=0.5;entryDx=0;entryDy=0;" edge="1" parent="1" source="u5ZnRDsaEpB6E1fvOYV4-1" target="u5ZnRDsaEpB6E1fvOYV4-2">
          <mxGeometry relative="1" as="geometry" />
        </mxCell>
        <mxCell id="u5ZnRDsaEpB6E1fvOYV4-1" value="User" style="rounded=1;whiteSpace=wrap;html=1;" vertex="1" parent="1">
          <mxGeometry x="80" y="160" width="120" height="60" as="geometry" />
        </mxCell>
        <mxCell id="u5ZnRDsaEpB6E1fvOYV4-7" style="edgeStyle=orthogonalEdgeStyle;rounded=0;orthogonalLoop=1;jettySize=auto;html=1;exitX=1;exitY=0.5;exitDx=0;exitDy=0;entryX=0;entryY=0.5;entryDx=0;entryDy=0;" edge="1" parent="1" source="u5ZnRDsaEpB6E1fvOYV4-2" target="u5ZnRDsaEpB6E1fvOYV4-3">
          <mxGeometry relative="1" as="geometry" />
        </mxCell>
        <mxCell id="u5ZnRDsaEpB6E1fvOYV4-17" style="edgeStyle=orthogonalEdgeStyle;rounded=0;orthogonalLoop=1;jettySize=auto;html=1;exitX=0;exitY=0.5;exitDx=0;exitDy=0;entryX=1;entryY=0.5;entryDx=0;entryDy=0;" edge="1" parent="1" source="u5ZnRDsaEpB6E1fvOYV4-2" target="u5ZnRDsaEpB6E1fvOYV4-1">
          <mxGeometry relative="1" as="geometry" />
        </mxCell>
        <mxCell id="u5ZnRDsaEpB6E1fvOYV4-2" value="Load balancer" style="rounded=1;whiteSpace=wrap;html=1;" vertex="1" parent="1">
          <mxGeometry x="280" y="160" width="120" height="60" as="geometry" />
        </mxCell>
        <mxCell id="u5ZnRDsaEpB6E1fvOYV4-8" style="edgeStyle=orthogonalEdgeStyle;rounded=0;orthogonalLoop=1;jettySize=auto;html=1;exitX=1;exitY=0.5;exitDx=0;exitDy=0;entryX=0;entryY=0.5;entryDx=0;entryDy=0;" edge="1" parent="1" source="u5ZnRDsaEpB6E1fvOYV4-3" target="u5ZnRDsaEpB6E1fvOYV4-4">
          <mxGeometry relative="1" as="geometry" />
        </mxCell>
        <mxCell id="u5ZnRDsaEpB6E1fvOYV4-16" style="edgeStyle=orthogonalEdgeStyle;rounded=0;orthogonalLoop=1;jettySize=auto;html=1;exitX=0;exitY=0.5;exitDx=0;exitDy=0;entryX=1;entryY=0.5;entryDx=0;entryDy=0;" edge="1" parent="1" source="u5ZnRDsaEpB6E1fvOYV4-3" target="u5ZnRDsaEpB6E1fvOYV4-2">
          <mxGeometry relative="1" as="geometry" />
        </mxCell>
        <mxCell id="u5ZnRDsaEpB6E1fvOYV4-3" value="API servers" style="rounded=1;whiteSpace=wrap;html=1;" vertex="1" parent="1">
          <mxGeometry x="480" y="160" width="120" height="60" as="geometry" />
        </mxCell>
        <mxCell id="u5ZnRDsaEpB6E1fvOYV4-10" style="edgeStyle=orthogonalEdgeStyle;rounded=0;orthogonalLoop=1;jettySize=auto;html=1;exitX=0.5;exitY=1;exitDx=0;exitDy=0;entryX=0.5;entryY=0;entryDx=0;entryDy=0;" edge="1" parent="1" source="u5ZnRDsaEpB6E1fvOYV4-4" target="u5ZnRDsaEpB6E1fvOYV4-5">
          <mxGeometry relative="1" as="geometry" />
        </mxCell>
        <mxCell id="u5ZnRDsaEpB6E1fvOYV4-13" style="edgeStyle=orthogonalEdgeStyle;rounded=0;orthogonalLoop=1;jettySize=auto;html=1;exitX=0.5;exitY=0;exitDx=0;exitDy=0;entryX=0.5;entryY=1;entryDx=0;entryDy=0;" edge="1" parent="1" source="u5ZnRDsaEpB6E1fvOYV4-4" target="u5ZnRDsaEpB6E1fvOYV4-12">
          <mxGeometry relative="1" as="geometry" />
        </mxCell>
        <mxCell id="u5ZnRDsaEpB6E1fvOYV4-4" value="Trie Cache" style="rounded=1;whiteSpace=wrap;html=1;" vertex="1" parent="1">
          <mxGeometry x="680" y="160" width="120" height="60" as="geometry" />
        </mxCell>
        <mxCell id="u5ZnRDsaEpB6E1fvOYV4-11" style="edgeStyle=orthogonalEdgeStyle;rounded=0;orthogonalLoop=1;jettySize=auto;html=1;exitX=0.5;exitY=0;exitDx=0;exitDy=0;" edge="1" parent="1" source="u5ZnRDsaEpB6E1fvOYV4-5">
          <mxGeometry relative="1" as="geometry">
            <mxPoint x="740" y="220" as="targetPoint" />
          </mxGeometry>
        </mxCell>
        <mxCell id="u5ZnRDsaEpB6E1fvOYV4-5" value="Trie DB" style="rounded=1;whiteSpace=wrap;html=1;" vertex="1" parent="1">
          <mxGeometry x="680" y="280" width="120" height="60" as="geometry" />
        </mxCell>
        <mxCell id="u5ZnRDsaEpB6E1fvOYV4-15" style="edgeStyle=orthogonalEdgeStyle;rounded=0;orthogonalLoop=1;jettySize=auto;html=1;exitX=0;exitY=0.5;exitDx=0;exitDy=0;entryX=0.5;entryY=0;entryDx=0;entryDy=0;" edge="1" parent="1" source="u5ZnRDsaEpB6E1fvOYV4-12" target="u5ZnRDsaEpB6E1fvOYV4-3">
          <mxGeometry relative="1" as="geometry" />
        </mxCell>
        <mxCell id="u5ZnRDsaEpB6E1fvOYV4-12" value="Filter" style="rounded=1;whiteSpace=wrap;html=1;" vertex="1" parent="1">
          <mxGeometry x="680" y="40" width="120" height="60" as="geometry" />
        </mxCell>
      </root>
    </mxGraphModel>
  </diagram>
</mxfile>
